<svg width="120" height="51" viewBox="0 0 120 51" fill="none" xmlns="http://www.w3.org/2000/svg">
<g clip-path="url(#clip0_265_3424)">
<path d="M97.738 50.9999H95.6598C95.4743 50.9983 95.297 50.9239 95.1659 50.7928C95.0347 50.6617 94.9604 50.4843 94.9587 50.2989V30.9498C94.9587 29.2716 95.6254 27.6621 96.8121 26.4754C97.9988 25.2887 99.6082 24.6221 101.286 24.6221H113.216C114.894 24.6221 116.504 25.2887 117.69 26.4754C118.877 27.6621 119.544 29.2716 119.544 30.9498V35.8754C119.539 37.5504 118.87 39.1551 117.684 40.3378C116.498 41.5204 114.891 42.1845 113.216 42.1845H102.67C102.484 42.1829 102.307 42.1085 102.176 41.9774C102.045 41.8463 101.97 41.6689 101.969 41.4835V39.3929C101.969 39.2075 102.042 39.0294 102.172 38.8972C102.302 38.7649 102.478 38.6889 102.664 38.6857H114.63C115.002 38.6857 115.359 38.538 115.622 38.275C115.885 38.0121 116.032 37.6555 116.032 37.2837V29.5415C116.032 29.1697 115.885 28.8131 115.622 28.5502C115.359 28.2872 115.002 28.1395 114.63 28.1395H99.8472C99.4754 28.1395 99.1187 28.2872 98.8558 28.5502C98.5929 28.8131 98.4452 29.1697 98.4452 29.5415V50.2927C98.4452 50.4802 98.3707 50.6601 98.238 50.7927C98.1054 50.9254 97.9255 50.9999 97.738 50.9999Z" fill="#212121"/>
<path d="M15.9682 50.9999H6.32773C4.64945 50.9966 3.04094 50.328 1.8548 49.1407C0.668662 47.9534 0.00166688 46.3443 2.79432e-05 44.666V25.3231C-0.000790375 25.2318 0.0163721 25.1413 0.0505354 25.0567C0.0846987 24.9721 0.135194 24.895 0.199137 24.83C0.263081 24.7649 0.33922 24.713 0.423207 24.6773C0.507195 24.6417 0.597386 24.6229 0.68863 24.6221H2.81027C2.99571 24.622 3.17373 24.6948 3.30601 24.8248C3.43829 24.9548 3.51423 25.1315 3.51748 25.3169V46.0742C3.51748 46.2597 3.55411 46.4433 3.62527 46.6145C3.69643 46.7858 3.80071 46.9413 3.93213 47.0722C4.06356 47.203 4.21953 47.3066 4.3911 47.377C4.56267 47.4474 4.74646 47.4832 4.93191 47.4824H15.9992C16.0921 47.4808 16.1843 47.4975 16.2708 47.5315C16.3572 47.5655 16.4361 47.6162 16.5029 47.6808C16.5697 47.7453 16.6232 47.8223 16.6602 47.9075C16.6973 47.9927 16.7172 48.0844 16.7188 48.1772V50.2865C16.7188 50.474 16.6443 50.6539 16.5117 50.7865C16.379 50.9192 16.1992 50.9937 16.0116 50.9937L15.9682 50.9999Z" fill="#212121"/>
<path d="M83.3208 50.9999H62.6752C61.7804 51.0011 60.8962 50.8063 60.0848 50.429C59.2735 50.0517 58.5547 49.5012 57.979 48.8162L41.2664 29.0701C41.0175 28.7786 40.7083 28.5445 40.3603 28.3839C40.0123 28.2233 39.6336 28.1399 39.2503 28.1395H25.1122C24.7398 28.1395 24.3825 28.287 24.1186 28.5498C23.8547 28.8125 23.7056 29.1691 23.704 29.5415V46.0742C23.704 46.4477 23.8523 46.8059 24.1164 47.07C24.3805 47.3341 24.7387 47.4824 25.1122 47.4824H39.8272C40.0339 47.4831 40.2382 47.4384 40.4258 47.3516C40.6133 47.2648 40.7796 47.1379 40.9128 46.9799L43.9712 43.3632C44.0906 43.2211 44.2615 43.1321 44.4465 43.1159C44.6314 43.0996 44.8152 43.1573 44.9576 43.2764L46.5643 44.666C46.7065 44.7854 46.7954 44.9563 46.8117 45.1412C46.828 45.3261 46.7703 45.5099 46.6512 45.6524L44.0084 48.7542C43.4142 49.4568 42.6741 50.0216 41.8395 50.4094C41.005 50.7972 40.0961 50.9987 39.1758 50.9999H26.5204C24.8406 50.9999 23.2295 50.3326 22.0417 49.1447C20.8538 47.9569 20.1865 46.3458 20.1865 44.666V30.9498C20.1898 29.2715 20.8584 27.663 22.0457 26.4768C23.233 25.2907 24.8421 24.6237 26.5204 24.6221H39.2503C40.1452 24.6217 41.0295 24.8163 41.8415 25.1923C42.6536 25.5683 43.374 26.1168 43.9526 26.7995L60.659 46.5271C60.9065 46.8206 61.2152 47.0565 61.5635 47.2183C61.9117 47.3801 62.2911 47.4639 62.6752 47.4638H84.729C85.1014 47.4622 85.458 47.3131 85.7208 47.0492C85.9835 46.7853 86.1311 46.428 86.1311 46.0556V29.5415C86.1311 29.1697 85.9833 28.8131 85.7204 28.5502C85.4575 28.2872 85.1009 28.1395 84.729 28.1395H62.1044C61.9001 28.1387 61.6981 28.1827 61.5127 28.2684C61.3272 28.3542 61.1628 28.4796 61.0312 28.6358L57.9666 32.2587C57.8472 32.4009 57.6763 32.4898 57.4914 32.5061C57.3065 32.5224 57.1226 32.4647 56.9802 32.3456L55.3673 30.9746C55.2248 30.8541 55.1357 30.6821 55.1194 30.4962C55.1031 30.3103 55.161 30.1254 55.2804 29.982L57.9232 26.8802C58.5178 26.1784 59.2581 25.6145 60.0926 25.2278C60.9272 24.841 61.836 24.6407 62.7558 24.6407H83.3208C84.999 24.6407 86.6085 25.3073 87.7952 26.494C88.9818 27.6807 89.6485 29.2902 89.6485 30.9684V44.666C89.6469 46.3443 88.9799 47.9534 87.7937 49.1407C86.6076 50.328 84.9991 50.9966 83.3208 50.9999Z" fill="#212121"/>
<path d="M85.0764 17.5873H74.1767C74.0839 17.5842 73.9957 17.5459 73.9301 17.4803C73.8644 17.4146 73.8262 17.3265 73.8231 17.2337V14.4234C73.8247 14.3301 73.8624 14.2411 73.9284 14.1752C73.9944 14.1092 74.0834 14.0714 74.1767 14.0698H85.43C85.6154 14.0682 85.7928 13.9938 85.9239 13.8627C86.0551 13.7316 86.1294 13.5542 86.131 13.3688V11.2596C86.1319 11.1667 86.1144 11.0746 86.0796 10.9885C86.0448 10.9023 85.9934 10.8239 85.9283 10.7577C85.8632 10.6914 85.7857 10.6387 85.7002 10.6024C85.6147 10.5661 85.5229 10.547 85.43 10.5462H77.5142C76.3016 10.5462 75.1387 10.0645 74.2813 9.20703C73.4238 8.3496 72.9421 7.18668 72.9421 5.97409V4.57207C72.9421 3.35948 73.4238 2.19656 74.2813 1.33913C75.1387 0.481699 76.3016 0 77.5142 0L87.5393 0C87.6321 0.00309584 87.7202 0.0413445 87.7859 0.106999C87.8515 0.172654 87.8898 0.260808 87.8929 0.353607V3.16385C87.8913 3.25713 87.8535 3.34615 87.7875 3.41212C87.7216 3.47809 87.6326 3.51586 87.5393 3.51746H77.1668C76.9803 3.51745 76.8014 3.59111 76.6689 3.7224C76.5365 3.85368 76.4612 4.03198 76.4596 4.21846V6.3339C76.4612 6.52039 76.5365 6.69868 76.6689 6.82997C76.8014 6.96126 76.9803 7.03492 77.1668 7.03491H85.0764C86.289 7.03491 87.4519 7.51661 88.3094 8.37404C89.1668 9.23147 89.6485 10.3944 89.6485 11.607V13.0276C89.6485 14.2402 89.1668 15.4031 88.3094 16.2606C87.4519 17.118 86.289 17.5997 85.0764 17.5997V17.5873Z" fill="#212121"/>
<path d="M53.3202 17.3702L57.9791 3.98896C58.0252 3.85002 58.1145 3.7294 58.2338 3.64461C58.3532 3.55983 58.4965 3.5153 58.6429 3.51749H62.1603C62.3063 3.51719 62.4487 3.56246 62.5677 3.64698C62.6867 3.7315 62.7763 3.85105 62.8241 3.98896L67.5017 17.3702C67.5261 17.4394 67.5715 17.4993 67.6315 17.5415C67.6916 17.5837 67.7632 17.6063 67.8366 17.6059H70.8454C70.9392 17.6059 71.0291 17.5687 71.0954 17.5024C71.1618 17.436 71.199 17.3461 71.199 17.2523C71.205 17.2133 71.205 17.1735 71.199 17.1344L66.2609 3.06462C65.9451 2.16599 65.3573 1.38802 64.5791 0.83881C63.8009 0.289604 62.8709 -0.00356627 61.9184 3.27439e-05H58.9034C57.9509 -0.00356627 57.021 0.289604 56.2427 0.83881C55.4645 1.38802 54.8767 2.16599 54.5609 3.06462L49.598 17.1158C49.568 17.2047 49.5739 17.3018 49.6145 17.3864C49.655 17.471 49.727 17.5364 49.8151 17.5687C49.8541 17.5752 49.894 17.5752 49.933 17.5687H52.9107C52.9914 17.5891 53.0767 17.5804 53.1516 17.544C53.2265 17.5077 53.2862 17.4462 53.3202 17.3702Z" fill="#212121"/>
<path d="M30.007 17.3703L34.7094 3.98903C34.7546 3.85789 34.8376 3.74309 34.948 3.65916C35.0585 3.57524 35.1913 3.52596 35.3298 3.51756H38.872C39.018 3.51726 39.1604 3.56253 39.2794 3.64705C39.3984 3.73157 39.488 3.85112 39.5358 3.98903L44.232 17.3703C44.2553 17.439 44.2995 17.4986 44.3585 17.5409C44.4175 17.5832 44.4882 17.606 44.5608 17.606H47.5447C47.6004 17.6039 47.6549 17.589 47.7038 17.5623C47.7527 17.5356 47.7948 17.4979 47.8267 17.4522C47.8585 17.4065 47.8794 17.354 47.8875 17.2989C47.8956 17.2438 47.8908 17.1875 47.8735 17.1345L42.9106 3.0833C42.6031 2.18767 42.0247 1.40979 41.2556 0.857391C40.4865 0.304992 39.5646 0.00540047 38.6177 0.00010196H35.5779C34.6248 -0.00626624 33.6935 0.285819 32.9148 0.835405C32.136 1.38499 31.5487 2.16452 31.2354 3.06469L26.3159 17.1159C26.2972 17.1689 26.2913 17.2255 26.2988 17.2812C26.3064 17.3369 26.3271 17.39 26.3592 17.4361C26.3914 17.4822 26.434 17.5199 26.4837 17.5462C26.5333 17.5725 26.5885 17.5866 26.6447 17.5874H29.6286C29.7071 17.6011 29.788 17.5869 29.8571 17.5472C29.9262 17.5075 29.9793 17.4449 30.007 17.3703Z" fill="#212121"/>
<path d="M17.8852 4.94945e-05H15.776C15.253 0.000150215 14.7404 0.145872 14.2955 0.42089C13.8507 0.695907 13.4912 1.08936 13.2573 1.55716L12.1531 3.76565C12.1226 3.8213 12.0778 3.86773 12.0232 3.90007C11.9686 3.93241 11.9063 3.94948 11.8429 3.94948C11.7795 3.94948 11.7172 3.93241 11.6626 3.90007C11.6081 3.86773 11.5632 3.8213 11.5327 3.76565L10.4285 1.55716C10.1946 1.08936 9.83514 0.695907 9.39029 0.42089C8.94544 0.145872 8.43281 0.000150215 7.90981 4.94945e-05H5.80058C5.15467 0.00628717 4.53063 0.234843 4.03348 0.647249C3.53633 1.05966 3.19643 1.63074 3.07098 2.26437L0.087037 17.1531C0.0780163 17.1987 0.0780852 17.2457 0.0872397 17.2913C0.0963942 17.3369 0.114454 17.3802 0.140386 17.4188C0.166318 17.4574 0.199611 17.4905 0.23836 17.5163C0.277109 17.542 0.320552 17.5598 0.3662 17.5687H3.20126C3.28327 17.5688 3.36277 17.5404 3.42615 17.4884C3.48952 17.4363 3.53283 17.3638 3.54866 17.2834L6.07974 3.79046C6.09557 3.70999 6.13887 3.63752 6.20225 3.58546C6.26563 3.5334 6.34513 3.505 6.42714 3.5051H6.79316C6.85851 3.50478 6.92268 3.52259 6.97853 3.55654C7.03438 3.59048 7.07973 3.63925 7.10954 3.69741L9.03266 6.88607C9.22203 7.19675 9.48811 7.45351 9.80534 7.63168C10.1226 7.80984 10.4803 7.90344 10.8441 7.90347H12.8603C13.2233 7.90357 13.5802 7.80998 13.8965 7.63175C14.2127 7.45352 14.4776 7.19667 14.6656 6.88607L16.5887 3.72222C16.6185 3.66406 16.6638 3.6153 16.7197 3.58135C16.7755 3.5474 16.8397 3.5296 16.9051 3.52991H17.2711C17.3531 3.52981 17.4326 3.55822 17.496 3.61028C17.5593 3.66234 17.6027 3.73481 17.6185 3.81528L20.1496 17.3144C20.1654 17.3948 20.2087 17.4673 20.2721 17.5194C20.3354 17.5714 20.4149 17.5998 20.497 17.5997H23.2886C23.3824 17.5997 23.4723 17.5625 23.5386 17.4962C23.6049 17.4299 23.6422 17.3399 23.6422 17.2461C23.6453 17.2235 23.6453 17.2005 23.6422 17.1779L20.6583 2.28919C20.5376 1.64314 20.1938 1.06001 19.687 0.641613C19.1801 0.223217 18.5424 -0.00385374 17.8852 4.94945e-05Z" fill="#212121"/>
</g>
<defs>
<clipPath id="clip0_265_3424">
<rect width="119.544" height="51" fill="white"/>
</clipPath>
</defs>
</svg>
